<svg xmlns="http://www.w3.org/2000/svg" width="1600" height="420" viewBox="0 0 1600 420" role="img" aria-label="Dresden Energy Logo">
  <defs>
    <linearGradient id="deRed" x1="0" y1="0" x2="1" y2="1">
      <stop offset="0%" stop-color="#E3223A"/>
      <stop offset="100%" stop-color="#B30D28"/>
    </linearGradient>
    <filter id="softShadow" x="-20%" y="-20%" width="140%" height="140%">
      <feDropShadow dx="0" dy="10" stdDeviation="12" flood-color="#7A0A1B" flood-opacity="0.22"/>
    </filter>
  </defs>

  <rect x="0" y="0" width="1600" height="420" fill="none"/>

  <g transform="translate(56 40)" filter="url(#softShadow)">
    <rect x="0" y="0" width="310" height="310" rx="64" fill="url(#deRed)"/>
    <path d="M78 78h104c62 0 106 41 106 77 0 50-49 77-107 77H78V78zm72 58v39h33c20 0 34-7 34-19 0-13-14-20-34-20h-33z"
      fill="#FFFFFF"/>
    <path d="M80 244h188v28H80z" fill="#FFFFFF" opacity="0.94"/>
  </g>

  <g transform="translate(430 118)">
    <text x="0" y="84" fill="#B30D28" font-family="Space Grotesk, Manrope, Arial, sans-serif" font-size="118" font-weight="700" letter-spacing="1.2">DRESDEN</text>
    <text x="0" y="178" fill="#D11B35" font-family="Space Grotesk, Manrope, Arial, sans-serif" font-size="128" font-weight="800" letter-spacing="1.4">ENERGY</text>
    <rect x="0" y="206" width="740" height="12" rx="6" fill="#E3223A" opacity="0.88"/>
  </g>
</svg>
